<svg version="1.1" id="Layer_1"
    xmlns="http://www.w3.org/2000/svg"
    xmlns:xlink="http://www.w3.org/1999/xlink" x="0px" y="0px" width="100%" viewBox="0 0 1024 944" enable-background="new 0 0 1024 944" xml:space="preserve">
    <path opacity="1.000000" stroke="none" d="
M485.444153,945.000000 
	C484.896118,941.173706 484.701477,937.347412 484.701447,933.521118 
	C484.700287,774.030396 484.703491,614.539673 484.797668,455.049011 
	C484.800323,450.531891 483.797577,446.666290 481.452332,442.811096 
	C456.255005,401.390656 431.159851,359.908081 406.068146,318.423492 
	C405.146454,316.899597 403.742401,315.551758 403.756409,313.568573 
	C410.254700,311.088623 412.405121,311.734650 415.843872,317.515869 
	C439.430939,357.170776 462.988190,396.843475 486.561005,436.506897 
	C487.145660,437.490631 487.566162,438.632202 489.368866,439.345764 
	C493.823822,431.992188 498.381195,424.562683 502.848541,417.079437 
	C522.832458,383.604431 542.886169,350.170258 562.663391,316.573425 
	C565.926819,311.029572 570.119446,312.620972 575.019104,313.019318 
	C573.863892,317.034912 571.460144,319.859985 569.612061,322.918091 
	C549.277283,356.566559 528.881958,390.178558 508.421021,423.750427 
	C506.090027,427.575073 504.949982,431.442047 504.973602,435.981964 
	C505.123566,464.812805 505.165894,493.645447 504.970947,522.475647 
	C504.938446,527.283630 506.330231,529.006531 511.170197,528.729492 
	C517.316711,528.377625 523.499878,528.543152 529.663513,528.669312 
	C532.563843,528.728699 534.697021,527.781982 536.622559,525.578003 
	C563.476807,494.840576 590.407959,464.170319 617.268555,433.438385 
	C621.490784,428.607635 625.436035,423.501923 632.954468,426.794098 
	C633.676208,428.294678 632.698181,429.107758 631.954651,429.963165 
	C607.692566,457.876251 583.426086,485.785431 559.153564,513.689453 
	C554.452515,519.093811 549.928345,524.673462 544.934082,529.793274 
	C541.806030,532.999817 542.328552,535.106873 545.172058,538.080872 
	C568.891296,562.888367 592.500183,587.801270 616.123474,612.700378 
	C625.297791,622.370178 634.430603,632.079407 643.555481,641.795837 
	C644.201477,642.483643 644.625427,643.380127 645.153198,644.180542 
	C640.601990,646.927979 636.196838,646.665466 632.891296,643.212463 
	C618.720215,628.409180 604.658264,613.501404 590.511841,598.674377 
	C571.877991,579.144043 553.182495,559.672363 534.573181,540.118713 
	C532.563416,538.006897 530.369324,537.171631 527.495422,537.247375 
	C521.999817,537.392334 516.483154,537.515564 511.001953,537.193604 
	C506.474945,536.927673 504.939331,538.414246 504.967773,543.097168 
	C505.156921,574.260925 505.075928,605.426270 505.080261,636.591125 
	C505.080475,638.090881 505.028320,639.591003 505.050873,641.090210 
	C505.095032,644.026794 504.260834,645.778198 500.732971,645.612366 
	C497.582428,645.464294 495.621216,644.850830 495.829681,641.139465 
	C496.016235,637.818054 495.817352,634.475830 495.817078,631.142822 
	C495.812103,572.146240 495.811432,513.149719 495.809906,454.153168 
	C495.809845,452.034027 495.809906,449.914886 495.809906,446.710144 
	C493.627869,449.091370 493.998596,450.957947 493.996918,452.652649 
	C493.974396,475.484589 494.186432,498.318451 493.962494,521.148193 
	C492.592621,660.794861 493.766327,800.444641 493.350677,940.092285 
	C493.346710,941.422913 493.264801,942.753357 493.109650,944.541931 
	C490.629425,945.000000 488.258881,945.000000 485.444153,945.000000 
z"/>
    <path opacity="1.000000" stroke="none" d="
M488.656647,222.798950 
	C487.564789,153.370636 488.326935,84.412842 488.020294,15.458261 
	C487.989899,8.624385 489.181091,7.247138 494.006226,7.908759 
	C496.189636,8.208149 497.339722,9.191232 497.295624,11.445946 
	C497.276062,12.444514 497.328461,13.444262 497.328400,14.443473 
	C497.325287,83.237427 497.326569,152.031372 497.293884,220.825317 
	C497.292450,223.832870 498.227295,227.537659 492.993774,227.356659 
	C490.129761,227.257614 488.560577,226.285339 488.656647,222.798950 
z"/>
</svg>
