<?xml version="1.0" standalone="no"?>
<!DOCTYPE svg PUBLIC "-//W3C//DTD SVG 20010904//EN"
 "http://www.w3.org/TR/2001/REC-SVG-20010904/DTD/svg10.dtd">
<svg version="1.0" xmlns="http://www.w3.org/2000/svg"
 width="500.000000pt" height="500.000000pt" viewBox="0 0 500.000000 500.000000"
 preserveAspectRatio="xMidYMid meet">
<metadata>
Created by potrace 1.16, written by Peter Selinger 2001-2019
</metadata>
<g transform="translate(0.000000,500.000000) scale(0.100000,-0.100000)"
fill="#000000" stroke="none">
<path d="M2201 3739 c-257 -50 -448 -218 -528 -464 -32 -100 -37 -262 -10
-365 50 -189 182 -351 359 -441 l58 -29 0 -245 0 -245 80 0 80 0 0 125 0 124
103 166 c56 91 104 165 107 165 3 -1 69 -131 147 -290 l142 -290 90 0 c50 0
91 2 91 4 0 2 -82 171 -183 374 -147 297 -182 374 -174 389 6 10 78 128 162
263 167 270 205 335 180 305 -9 -11 -54 -81 -99 -155 -214 -348 -549 -886
-557 -895 -5 -5 -9 208 -9 528 l0 537 -80 0 -80 0 -2 -407 -3 -408 -71 71
c-52 53 -81 93 -112 155 -64 131 -77 190 -77 364 0 173 13 233 76 361 65 132
173 237 289 280 25 9 83 20 130 24 l85 7 -75 0 c-41 1 -95 -3 -119 -8z"/>
</g>
</svg>
